<svg version="1.0" xmlns="http://www.w3.org/2000/svg"
 width="158.000000pt" height="114.000000pt" viewBox="0 0 158.000000 114.000000"
 preserveAspectRatio="xMidYMid meet">
<g transform="translate(0.000000,114.000000) scale(0.100000,-0.100000)"
fill="#1f2d54" stroke="none">
<path d="M962 1117 c-12 -13 -22 -27 -22 -33 0 -5 107 -113 237 -241 l238
-232 -707 -1 -708 0 0 -45 0 -45 703 0 702 -1 -233 -227 c-128 -125 -233 -232
-232 -239 0 -6 14 -21 30 -33 l30 -21 290 283 c159 156 290 285 290 288 0 9
-578 570 -587 570 -5 0 -19 -10 -31 -23z"/>
</g>
</svg>