<?xml version="1.0" encoding="utf-8"?>
<!-- Generator: Adobe Illustrator 24.2.3, SVG Export Plug-In . SVG Version: 6.00 Build 0)  -->
<svg version="1.1" xmlns="http://www.w3.org/2000/svg" xmlns:xlink="http://www.w3.org/1999/xlink" x="0px" y="0px"
	 viewBox="0 0 1502.4 500.7" style="enable-background:new 0 0 1502.4 500.7;" xml:space="preserve">
<style type="text/css">
	.st0{fill:#0A0747;}
	.st1{fill:#7C5E30;}
</style>
<g id="ARTWORK__x26__TEXT">
</g>
<g id="Layer_1">
	<g>
		<path class="st0" d="M1459.8,442.1h-8.5c-11.4,0-19.7-1.6-24.7-4.7c-4.7-3-7.2-8.8-7.2-17.4V268.1c0-8.9-2.9-16.4-8.7-22.5
			c-5.8-6.1-15.3-9.2-28.2-9.2h-10.9c-2.6,0-4.6,2.1-4.6,4.7v183.2c0,18.7,5.6,33.1,16.6,43c10.9,9.8,27.1,14.8,48,14.8
			c11.3,0,20-2.2,25.7-6.5c5.9-4.4,8.9-11.9,8.9-22.1v-4.8C1466.1,445,1463.3,442.1,1459.8,442.1"/>
		<path class="st0" d="M1312.6,224.9c-7.6,0-14.2,2.7-19.8,8.1c-5.5,5.4-8.4,11.9-8.4,19.4c0,7.6,2.8,14.2,8.4,19.7
			c5.5,5.5,12.2,8.3,19.8,8.3c7.7,0,14.5-2.8,20-8.3c5.6-5.5,8.5-12.2,8.5-19.7c0-7.5-2.8-14-8.5-19.4
			C1327.1,227.6,1320.3,224.9,1312.6,224.9"/>
		<path class="st0" d="M1329.3,302.7c-6.5-5.7-15.5-8.5-26.9-8.5h-10.9c-2.5,0-4.6,2.1-4.6,4.6v171.5c0,2.3,0.9,4.4,2.5,6
			c1.6,1.6,3.7,2.5,6,2.5l35.3,0c4.7,0,8.5-3.8,8.5-8.5V329C1339.1,317.3,1335.8,308.4,1329.3,302.7"/>
		<path class="st0" d="M1237,305.4c-7.6-6.5-16.7-11.4-26.9-14.5c-10.2-3.1-21.1-4.7-32.4-4.7c-12.2,0-23.6,2.6-33.9,7.8
			c-9.7,4.9-17.5,11.3-23.2,19.3c-7-8.1-15.5-14.6-25.1-19.4c-10.2-5.1-22.1-7.7-35.2-7.7c-15.1,0-28.4,2-39.6,5.9
			c-11.3,3.9-20.7,9.7-28.2,17c-7.4,7.4-13,16.3-16.7,26.6c-3.6,10.2-5.5,21.6-5.5,33.9v100c0,4.7,3.8,8.5,8.5,8.5h35.1
			c4.7,0,8.5-3.8,8.5-8.5V365.9c0-12,3.1-21.3,9.1-27.6c6-6.2,13.7-9.4,22.8-9.4c10.5,0,19.2,3.2,25.6,9.6
			c6.4,6.4,9.7,16.9,9.7,31.3v99.7c0,4.7,3.8,8.5,8.5,8.5h35.3c4.7,0,8.5-3.8,8.5-8.5V364.9c0-12.1,3-21.2,8.8-27.1
			c5.9-5.9,13.7-9,23.3-9c10.5,0,19,3.2,25.3,9.6c6.3,6.4,9.4,16.9,9.4,31.4v99.7c0,4.7,3.8,8.5,8.5,8.5h35.8c4.7,0,8.5-3.8,8.5-8.5
			V363.8c0-12.8-2.2-24.2-6.6-33.9C1250.7,320.1,1244.6,311.9,1237,305.4"/>
		<path class="st0" d="M201.4,455.1c-11.4-5-30.2-17.1-55.5-46.7c-21.3-25-25.2-35.5-27-40.6c-0.4-1.1-0.7-2-1.2-2.8
			c7.5-9.4,52.1-64.2,69.6-85.4c2.1-2.6,2.5-6,1.1-9c-1.4-3-4.4-4.9-7.7-4.9H161c-3.1,0-3.5,0.1-4.3,0.2l-2,0.2
			c-3.4,0.2-6.6,0.9-9.6,2c-2.9,1.1-5.7,2.5-8.4,4.3c-2.6,1.8-5.7,4.5-8.9,7.8c-13.4,12.8-48.6,59.4-60.7,75.6V274
			c0-8.4-2.7-16-8.1-22.5c-5.5-6.6-14.5-10-27.1-10H19c-2.5,0-4.6,2.1-4.6,4.6v223.3c0,4.7,3.8,8.5,8.5,8.5h35.8
			c4.7,0,8.5-3.8,8.5-8.5v-92.6l2.4,4.7c4.9,9.8,12.2,24.7,33.2,51.1c23.2,29.3,41.7,42.4,66.1,47c3,0.5,5.9,0.8,8.8,0.8
			c8.4,0,16.6-2.2,24.7-6.7c3.5-1.9,5.5-5.6,5.3-9.6C207.4,460.1,205.1,456.7,201.4,455.1"/>
		<path class="st0" d="M288.8,367c-7.3,0.7-17,1-28.7,1h-20.3l0.3-4.4v0c0.2-4.9,1.3-9.7,3.3-14.2c1.9-4.5,4.7-8.4,8.2-11.7
			c3.6-3.3,7.8-6,12.7-8c4.8-2,10.1-3.1,15.7-3.1c11.1,0,20.1,2.2,26.6,6.4c6.4,4.2,9.5,10.5,9.5,19.1c0,2.7-0.7,5-2.1,7
			c-1.4,2-4.1,3.6-8.1,4.8C301.8,365.3,296.1,366.4,288.8,367 M342.5,393.2c15.3-6.6,23-18.6,23-35.6c0-11-2.3-21-6.8-29.9
			c-4.5-8.9-10.6-16.4-18.1-22.5c-7.5-6.1-16.2-10.8-25.8-14.1c-9.6-3.3-19.8-4.9-30.2-4.9c-14.4,0-27.7,2.3-39.8,6.9
			c-12,4.6-22.6,11.3-31.2,19.9c-8.7,8.6-15.5,19.2-20.4,31.5c-4.8,12.3-7.3,26.1-7.3,41.3c0,14,2.8,26.8,8.4,38.1
			c5.6,11.3,13,21,22.3,29c9.2,8.1,19.9,14.3,31.7,18.6c11.9,4.3,24.2,6.5,36.6,6.5c13.5,0,25-1.1,34.3-3.2c9.3-2.2,17-5.2,22.8-9
			c5.9-3.9,10-8.4,12.5-13.5c2.4-5.1,3.6-10.7,3.6-16.7v-7.4c0-1.9-1-3.7-2.6-4.7c-1.7-1-3.7-1-5.4-0.1c-5.9,3.1-17,8.6-24.2,10.1
			c-11,2.3-21.7,3.5-31.8,3.5c-14.3,0-26.7-3.3-36.5-9.8c-9.2-6.1-15-14.2-17.1-24.2h30.5C303.5,402.9,327.6,399.6,342.5,393.2"/>
		<path class="st0" d="M847.6,400.8c3.6-1.8,8.4-3.2,14.5-4.2c6.1-1,13.9-1.4,23.1-1.4h16.1V411c0,17.6-9.8,26.2-30.1,26.2
			c-10.7,0-18.9-1.9-24.5-5.6c-5.5-3.6-8.1-8.6-8.1-15.3c0-3.3,0.7-6.4,2-9C841.8,404.8,844.2,402.6,847.6,400.8 M926.4,304.1
			c-7.8-6.3-17-10.8-27.3-13.5c-10.1-2.6-21-3.9-32.2-3.9c-13,0-24.3,1.4-33.7,4.1c-9.4,2.7-17.1,6.3-23,10.8
			c-5.9,4.5-10.3,9.5-12.9,14.9c-2.7,5.4-4,10.8-4,15.9c0,0.8,0.1,8.3,4.3,10.5c2.2,1.1,4.8,0.7,7.9-1.5c3.4-2.4,7.7-4.6,12.7-6.7
			c5-2.1,11-3.8,17.9-5.2c6.9-1.3,14.8-2,23.5-2c14.2,0,24.8,2.3,31.4,6.8c6.4,4.4,9.7,12.7,9.7,24.9v0.8h-15.7
			c-18.2,0-33.9,1.5-46.6,4.4c-12.7,2.9-23.2,7-31,12.1c-7.9,5.2-13.7,11.4-17.3,18.5c-3.5,7.1-5.3,14.8-5.3,23.1
			c0,8.5,2,16.4,5.9,23.7c3.8,7.2,9.5,13.5,16.6,18.6c7.1,5.1,15.8,9.1,25.7,12.1c9.9,2.9,20.9,4.4,32.8,4.4H876
			c11.1,0,21.5-1.6,30.8-4.7c9.3-3.1,17.4-7.7,24.2-13.4c6.8-5.8,12.1-12.8,15.9-20.9c3.7-8.1,5.6-17.2,5.6-26.9v-41.5
			c0-15.7-2.4-29-7.1-39.6C940.7,319,934.3,310.4,926.4,304.1"/>
		<path class="st0" d="M534.1,307c-7.8-6.9-17.1-12.2-27.6-15.7c-10.4-3.5-21.7-5.2-33.6-5.2c-15.6,0-29.3,2.2-40.7,6.7
			c-11.4,4.5-21,10.5-28.3,17.9c-7.3,7.4-12.9,15.9-16.5,25.4c-3.7,9.4-5.5,19.1-5.5,28.8v104.5c0,4.7,3.8,8.5,8.5,8.5h35.5
			c4.7,0,8.5-3.8,8.5-8.5V367.9c0-12.5,3.2-22.2,9.5-28.9c6.2-6.7,14.6-10.1,24.9-10.1c12.3,0,21.9,3.3,28.6,9.9
			c6.6,6.6,10,17.5,10,32.5v98.2c0,4.7,3.8,8.5,8.5,8.5h35.4c4.7,0,8.5-3.8,8.5-8.5V367.2c0-12.9-2.3-24.5-7-34.6
			C548.2,322.5,541.9,313.9,534.1,307"/>
		<path class="st0" d="M714.8,387c0,16.1-3.1,28.6-9.1,37.2c-6,8.5-15.7,12.7-29,12.7c-6.9,0-13.3-1.4-19.1-4.2
			c-5.7-2.8-10.8-6.8-15.1-12.1c-4.3-5.3-7.8-11.7-10.3-19.1c-2.5-7.4-3.8-15.8-3.8-25c0-7.1,1-13.8,2.9-19.9c1.9-6,4.6-11.4,8-15.8
			c3.4-4.4,7.5-7.8,12.3-10.3c4.8-2.4,10.4-3.7,16.5-3.7c6.4,0,12.5,1.1,18.1,3.3c5.6,2.1,10.6,5.5,14.7,10.1
			c4.2,4.6,7.5,10.8,10,18.3C713.5,366.2,714.8,375.8,714.8,387 M732.1,229.8h-12c-2.6,0-4.6,2.1-4.6,4.7v75.9
			c-1.6-2.3-3.5-4.6-5.7-6.7c-3.7-3.6-7.8-6.7-12.3-9.3c-4.4-2.6-9.3-4.7-14.5-6.1c-5.2-1.4-10.3-2.2-15.3-2.2
			c-14.6,0-27.8,2.3-39.1,6.9c-11.4,4.6-21,11.3-28.6,20.1c-7.6,8.7-13.5,19.3-17.4,31.5c-3.9,12.1-5.9,25.8-5.9,40.7
			c0,12.6,2.4,24.5,7.1,35.6c4.7,11.1,11.4,21,19.8,29.5c8.4,8.5,18.4,15.3,29.9,20.1c11.4,4.9,23.9,7.3,37.1,7.3
			c17,0,31.8-2.1,44.1-6.3c12.3-4.2,22.5-10.3,30.2-18.2c7.7-7.9,13.5-17.4,17.1-28.2c3.6-10.8,5.4-23,5.4-36.2V261.9
			c0-9.5-2.8-17.3-8.5-23.2C753.3,232.8,744.2,229.8,732.1,229.8"/>
		<path class="st0" d="M1488,254.9c0-12.9-10.4-23.3-23.3-23.3c-12.9,0-23.2,10.4-23.2,23.3s10.4,23.2,23.2,23.2
			C1477.6,278.2,1488,267.8,1488,254.9 M1445.1,254.9c0-10.9,8.7-19.7,19.6-19.7c10.9,0,19.7,8.8,19.7,19.7s-8.8,19.7-19.7,19.7
			C1453.8,274.6,1445.1,265.8,1445.1,254.9 M1475.7,267l-6.7-9.1c3.3-0.8,5.4-3.3,5.4-6.7c0-5.5-3.4-8.4-10-8.5h-8.3v24.2h6v-9.2
			l6.7,9.4H1475.7z M1462.1,247.7h2.4c2.3,0,3.7,1.2,3.7,3.2c0,2.1-1.4,3.2-4.2,3.2h-2V247.7z"/>
	</g>
	<polygon class="st1" points="868.5,156.2 868.5,150.3 882.2,143.8 882.2,177.9 875.1,177.9 875.1,153 	"/>
	<g>
		<path class="st1" d="M907.8,165c-6.1,0-10.7-4.3-10.7-10c0-6.2,5.3-11,12.2-11c6.8,0,11.8,4.6,11.8,10.9c0,3.1-1.2,6-3.9,10
			l-9.1,13.1h-7.9l9.3-13.1C908.6,164.9,908.3,165,907.8,165 M903.9,154.7c0,2.7,2.2,4.8,5.1,4.8c3,0,5.4-2,5.4-4.7
			c0-2.7-2.3-4.9-5.3-4.9C906.3,149.9,903.9,152.1,903.9,154.7"/>
		<path class="st1" d="M945.4,157.8c0.9-0.2,1.3-0.3,1.9-0.3c5.6,0,10.2,4.5,10.2,10c0,6.2-5.5,11.1-12.3,11.1
			c-6.7,0-11.8-4.6-11.8-10.7c0-3.1,1.1-5.9,4.1-10.1l9.2-13.2h8L945.4,157.8z M945.7,162.9c-3,0-5.4,2.1-5.4,4.9
			c0,2.8,2.2,4.8,5.3,4.8s5.3-2.2,5.3-5C950.8,165,948.5,162.9,945.7,162.9"/>
		<path class="st1" d="M991.9,172.3v5.6h-22.4l12.9-17.8c2.8-3.9,3.4-5,3.4-6.6c0-2.1-1.8-3.7-4.4-3.7c-3.2,0-4.6,1.6-4.7,5.6h-6.5
			V155c0-6.8,4.5-11.1,11.6-11.1c6.5,0,11.1,3.7,11.1,9c0,3.1-1.2,5.9-4.5,10.3l-6.9,9.2H991.9z"/>
	</g>
	<polygon class="st1" points="520.8,178 540.5,178 540.5,172.3 527,172.3 527,162.5 540.1,162.5 540.1,156.8 527,156.8 527,150.1 
		540.5,150.1 540.5,144.4 520.8,144.4 	"/>
	<g>
		<path class="st1" d="M565.5,157.6l-3.3-1.3c-2.2-0.9-3.3-2-3.3-3.3c0-1,0.4-1.8,1.2-2.5c0.8-0.7,1.9-1,3.1-1c1,0,1.9,0.2,2.5,0.6
			c0.6,0.4,1.3,1.1,2,2.4l0.3,0.5l5.1-2.9l-0.3-0.5c-2.3-3.8-5.5-5.7-9.6-5.7c-3,0-5.5,0.9-7.5,2.6c-2.1,1.7-3.1,3.9-3.1,6.5
			c0,3.9,2.4,6.8,7.2,8.8l3.2,1.3c0.8,0.3,1.5,0.7,2.1,1c0.6,0.4,1,0.8,1.4,1.1c0.3,0.4,0.6,0.8,0.7,1.3c0.2,0.5,0.2,1,0.2,1.5
			c0,1.5-0.5,2.6-1.4,3.5c-1,0.9-2.1,1.4-3.6,1.4c-1.8,0-3.1-0.6-4.1-1.9c-0.5-0.7-0.9-1.9-1.1-3.7l-0.1-0.6l-6.2,1.3l0.1,0.5
			c0.5,3.2,1.7,5.6,3.7,7.4c2,1.7,4.6,2.6,7.6,2.6c3.2,0,5.9-1,8.1-3.1c2.1-2.1,3.2-4.7,3.2-7.8c0-2.4-0.7-4.4-2-6
			C570.4,160.1,568.3,158.7,565.5,157.6"/>
	</g>
	<polygon class="st1" points="582.5,144.4 582.5,150.1 590.2,150.1 590.2,178 596.4,178 596.4,150.1 604.1,150.1 604.1,144.4 	"/>
	<g>
		<path class="st1" d="M612.8,144.4h7.8c1.4,0,2.7,0.3,3.8,0.8c1.2,0.5,2.3,1.2,3.2,2.1c0.9,0.9,1.6,1.9,2.1,3.1
			c0.5,1.2,0.8,2.4,0.8,3.7c0,1.3-0.2,2.5-0.8,3.7c-0.5,1.2-1.2,2.2-2.1,3.1c-0.9,0.9-2,1.6-3.2,2.1c-1.2,0.5-2.5,0.8-3.9,0.8h-7.8
			V144.4z M618.1,159.6h1.2c0.9,0,1.7-0.1,2.4-0.4c0.7-0.3,1.3-0.7,1.8-1.1c0.5-0.5,0.9-1.1,1.1-1.7c0.3-0.7,0.4-1.4,0.4-2.2
			c0-0.8-0.1-1.5-0.4-2.2c-0.3-0.7-0.7-1.2-1.1-1.7c-0.5-0.5-1.1-0.9-1.8-1.1c-0.7-0.3-1.5-0.4-2.4-0.4h-1.2V159.6z"/>
		<path class="st1" d="M629,171.5v4.4c-1.1,0.8-2,1.4-2.6,1.7c-0.7,0.3-1.4,0.4-2.1,0.4c-0.5,0-1.1-0.1-1.6-0.2
			c-0.6-0.2-1.4-0.5-2.6-1.1c-1.2-0.6-2.1-0.9-2.8-0.9c-1.4,0-2.9,0.7-4.5,2.2v-4.5c0.9-0.8,1.7-1.3,2.4-1.6
			c0.8-0.3,1.6-0.5,2.5-0.5c0.5,0,0.9,0.1,1.4,0.2c0.5,0.1,1.3,0.4,2.2,0.9c1,0.5,1.7,0.8,2.1,0.9c0.4,0.1,0.8,0.2,1.2,0.2
			C625.9,173.6,627.4,172.9,629,171.5"/>
		<path class="st1" d="M756.2,33.4c-0.1,2.5-2.7,5.2-5,5.2h0c-2.3,0-4.9-2.7-5-5.2c-0.2-3.9,1.6-7.5,3.3-11.1l1.7-3.7l1.7,3.7
			C754.6,25.9,756.4,29.5,756.2,33.4"/>
		<path class="st1" d="M680,53.7c0.5,1.7-0.5,4-2,4.6h0c-1.5,0.5-3.8-0.6-4.5-2.3c-1-2.5-0.7-5.2-0.4-7.9l0.2-2.8l2,2
			C677.2,49.2,679.2,51.2,680,53.7"/>
		<path class="st1" d="M822.4,53.7c-0.5,1.7,0.5,4,2,4.6c1.5,0.5,3.8-0.6,4.5-2.3c1-2.5,0.7-5.2,0.4-7.9l-0.2-2.8l-2,2
			C825.2,49.2,823.2,51.2,822.4,53.7"/>
		<path class="st1" d="M816.6,164c-2.7,0-4.9-2.2-4.9-5c0-2.7,2.2-4.9,4.9-4.9c2.7,0,5,2.2,5,4.9C821.5,161.8,819.3,164,816.6,164
			 M751.4,164c-2.7,0-4.9-2.2-4.9-5c0-2.7,2.2-4.9,4.9-4.9c2.7,0,5,2.2,5,4.9C756.3,161.8,754.1,164,751.4,164 M686.2,164
			c-2.7,0-4.9-2.2-4.9-5c0-2.7,2.2-4.9,4.9-4.9c2.7,0,5,2.2,5,4.9C691.2,161.8,688.9,164,686.2,164 M662.8,151.3l5.1,15.4h166.5
			l5.1-15.4H662.8z"/>
	</g>
	<rect x="667.9" y="171.6" class="st1" width="166.7" height="6.8"/>
	<g>
		<path class="st1" d="M849.1,116.1c-8.4,15.5-22.5,24.2-31.6,19.3c-6.2-3.3-8.4-11.5-6.6-21.6c0.3-1.6,0.8-3.1,1.4-4.6
			c1.9-4.1,6.8-11,10.8-11.8c0.8-0.2,2-0.2,3.6,1.1c1.1,0.9,0.9,2.8,0.7,3.9c-0.7,3.3-2.9,6.1-4.2,6.6c-1.7,0.5-2.5,2.3-2,3.9
			c0.4,1.3,1.6,2.1,3,2.1c0.4,0,0.7-0.1,1-0.1c4.3-1.4,7.5-6.9,8.4-11.3c0.8-4.2-0.2-7.7-2.8-9.9c-2.7-2.3-5.8-3.2-9-2.5l-1.3,0.4
			c8.4-11.2,19.7-16.7,27.4-12.6C856.9,83.9,857.5,100.5,849.1,116.1 M805,84.1c-2.4-1.8-5.3-2.4-8.4-1.7c-3.3,0.8-5.6,2.8-6.8,5.9
			c-2,5.5,0.6,13,2.6,15.7c1,1.4,3,1.7,4.4,0.6c1.4-1,1.7-3,0.6-4.4c-1.1-1.4-2.8-6.6-1.7-9.8c0.4-1.1,1.1-1.7,2.3-1.9
			c1.3-0.3,2.3-0.1,3.2,0.6c1.8,1.3,3,4.3,3.9,7.4c0.9,3.5,0.8,7.2-0.2,10.7c-4.5,15.9-14.5,27-25.7,26.3
			c-12.5-0.7-23.3-13.9-23-28.1c-0.1-4.1,2.1-14.5,6.6-18.2c1.8-1.6,4.1-2.1,6.8-1.6c3.5,0.7,5.5,2.5,6.3,5.7
			c1.4,5.8-1.8,13.1-3.1,14.1c-1.5,0.8-2.1,2.7-1.3,4.2c0.8,1.5,2.8,2.1,4.3,1.3c3.9-2.1,7.7-11.7,6.5-19.7
			c-1-6.5-5.1-10.7-11.6-11.8c-4.6-0.8-8.7,0.1-12,2.9c-1.2,1.1-2.3,2.3-3.3,3.7c2.2-21.4,14.2-37.7,27.7-37
			c13.1,0.6,23.2,16.8,24,37.2C806.6,85.5,805.9,84.7,805,84.1 M726.5,111c1.5,0.8,3.4,0.2,4.3-1.3c0.8-1.5,0.3-3.4-1.2-4.2
			c-1.4-1-4.6-8.3-3.2-14.1c0.8-3.3,2.8-5.1,6.3-5.7c2.8-0.5,5,0,6.9,1.6c4.5,3.7,6.6,14.1,6.6,18.2c0.4,14.2-10.5,27.4-23,28.1
			c-11.1,0.6-21.2-10.4-25.7-26.3c-1-3.5-1.1-7.2-0.2-10.7c0.8-3.1,2.1-6.1,3.9-7.4c0.9-0.7,1.9-0.9,3.2-0.6
			c1.2,0.2,1.9,0.8,2.2,1.9c1.1,3.1-0.7,8.4-1.7,9.8c-1,1.4-0.8,3.3,0.6,4.4c1.4,1.1,3.4,0.8,4.4-0.6c2-2.7,4.6-10.2,2.6-15.7
			c-1.1-3.1-3.4-5.1-6.8-5.9c-3.1-0.7-6-0.1-8.4,1.7c-0.8,0.6-1.6,1.4-2.2,2.3c0.9-20.5,10.9-36.6,24-37.2
			c13.5-0.6,25.4,15.6,27.7,37c-1-1.4-2-2.7-3.3-3.7c-3.3-2.8-7.3-3.7-12-2.9c-6.5,1.2-10.5,5.4-11.5,11.8
			C718.8,99.3,722.6,109,726.5,111 M684.9,135.4c-9.1,4.9-23.3-3.7-31.7-19.3c-8.4-15.6-7.8-32.2,1.3-37.1c7.7-4.1,19,1.4,27.4,12.6
			l-1.2-0.4c-3.2-0.7-6.3,0.2-9,2.5c-2.6,2.2-3.6,5.7-2.8,9.9c0.9,4.4,4.1,9.9,8.4,11.3c0.3,0.1,0.7,0.1,1,0.1c1.3,0,2.5-0.8,3-2.1
			c0.5-1.6-0.4-3.4-2-3.9c-1.2-0.4-3.5-3.2-4.2-6.6c-0.2-1.1-0.4-2.9,0.7-3.9c1.6-1.4,2.8-1.3,3.6-1.1c4,0.8,8.9,7.7,10.8,11.8
			c0.6,1.5,1.1,3,1.4,4.6C693.4,123.9,691.1,132,684.9,135.4 M858.4,76.3c-16.4-18.6-35.3,0-41.6,6.6c0,0-5-48.1-36.9-43.2
			c0,0-11.2,1.4-20.3,14.2l-0.2,0.3c-5,7.2-7.7,15.6-8.1,24.3c-0.4-8.7-3.1-17.1-8.1-24.3l-0.2-0.3c-9.1-12.8-20.3-14.2-20.3-14.2
			c-31.9-4.9-36.9,43.2-36.9,43.2c-6.4-6.6-25.3-25.2-41.6-6.6c-16.4,18.6,15,68.8,15,68.8h184.4C843.4,145.1,874.8,94.8,858.4,76.3
			"/>
	</g>
</g>
</svg>
